# xmcd
#
# Track frame offsets: 
#        150
#        54158
#        109482
#        164955
#        220296
#        273851
#
# Disc length: 4366 seconds
#
# Revision: 3
# Processed by: cddbd v1.5.2PL0 Copyright (c) Steve Scherf et al.
# Submitted via: ExactAudioCopyFreeDBPlugin 1.0
#
DISCID=59110c06
DTITLE=Hank Williams - Hillbilly Hero [CD 4)
DYEAR=2002
DGENRE=Hillbilly
TTITLE0=Show One
TTITLE1=Show Two
TTITLE2=Show Three
TTITLE3=Show Four
TTITLE4=Show Five
TTITLE5=Show Six
EXTD=
EXTT0=
EXTT1=
EXTT2=
EXTT3=
EXTT4=
EXTT5=
PLAYORDER=
